<svg width="20" height="20" viewBox="0 0 20 20" fill="none" xmlns="http://www.w3.org/2000/svg">
<path d="M5.375 1C5.875 1 7.875 5.5 7.875 6C7.875 7 6.375 8 5.875 9C5.375 10 6.375 11 7.375 12C7.765 12.39 9.375 14 10.375 13.5C11.375 13 12.375 11.5 13.375 11.5C13.875 11.5 18.375 13.5 18.375 14C18.375 16 16.875 17.5 15.375 18C13.875 18.5 12.875 18.5 10.875 18C8.875 17.5 7.375 17 4.875 14.5C2.375 12 1.875 10.5 1.375 8.5C0.875 6.5 0.875 5.5 1.375 4C1.875 2.5 3.375 1 5.375 1Z" stroke="black" stroke-width="2" stroke-linecap="round" stroke-linejoin="round"/>
</svg>
